<svg width="25" height="24" viewBox="0 0 25 24" fill="none" xmlns="http://www.w3.org/2000/svg">
<path d="M5.5 9V6.8C5.5 6.36 5.86 6 6.3 6H22.7C23.14 6 23.5 6.36 23.5 6.8V15.2C23.5 15.64 23.14 16 22.7 16H20.5M3.3 9H19.7C19.9122 9 20.1157 9.08429 20.2657 9.23431C20.4157 9.38434 20.5 9.58783 20.5 9.8V18.2C20.5 18.4122 20.4157 18.6157 20.2657 18.7657C20.1157 18.9157 19.9122 19 19.7 19H3.3C3.08783 19 2.88434 18.9157 2.73431 18.7657C2.58429 18.6157 2.5 18.4122 2.5 18.2V9.8C2.5 9.58783 2.58429 9.38434 2.73431 9.23431C2.88434 9.08429 3.08783 9 3.3 9ZM12.5 14C12.5 14.2652 12.3946 14.5196 12.2071 14.7071C12.0196 14.8946 11.7652 15 11.5 15C11.2348 15 10.9804 14.8946 10.7929 14.7071C10.6054 14.5196 10.5 14.2652 10.5 14C10.5 13.7348 10.6054 13.4804 10.7929 13.2929C10.9804 13.1054 11.2348 13 11.5 13C11.7652 13 12.0196 13.1054 12.2071 13.2929C12.3946 13.4804 12.5 13.7348 12.5 14Z" stroke="#EDF2F4" stroke-width="1.5" stroke-miterlimit="10" stroke-linejoin="round"/>
</svg>
