<svg width="25" height="24" viewBox="0 0 25 24" fill="none" xmlns="http://www.w3.org/2000/svg">
<path d="M20.5 10.128C20.5 6.296 20.5 4.381 19.328 3.19C18.156 1.999 16.271 2 12.5 2H10.5C6.729 2 4.843 2 3.672 3.19C2.501 4.38 2.5 6.296 2.5 10.128C2.5 13.96 2.5 15.875 3.672 17.066C4.142 17.543 4.726 17.829 5.5 18" stroke="#EDF2F4" stroke-width="1.5" stroke-linecap="round" stroke-linejoin="round"/>
<path d="M22.5 17.5C22.5 15.625 22.5 14.688 22.023 14.03C21.8688 13.8178 21.6822 13.6312 21.47 13.477C20.812 13 19.875 13 18 13H13C11.125 13 10.188 13 9.53 13.477C9.3178 13.6312 9.13118 13.8178 8.977 14.03C8.5 14.689 8.5 15.626 8.5 17.5C8.5 19.374 8.5 20.312 8.977 20.97C9.13148 21.1823 9.31844 21.3689 9.531 21.523C10.188 22 11.125 22 13 22H18C19.875 22 20.812 22 21.47 21.523C21.6822 21.3688 21.8688 21.1822 22.023 20.97C22.5 20.312 22.5 19.375 22.5 17.5Z" stroke="#EDF2F4" stroke-width="1.5" stroke-linecap="round" stroke-linejoin="round"/>
<path d="M17 16L17.92 16.793C18.307 17.126 18.5 17.293 18.5 17.5C18.5 17.707 18.307 17.874 17.92 18.207L17 19M14 16L13.08 16.793C12.693 17.126 12.5 17.293 12.5 17.5C12.5 17.707 12.693 17.874 13.08 18.207L14 19M3 6H20" stroke="#EDF2F4" stroke-width="1.5" stroke-linecap="round" stroke-linejoin="round"/>
</svg>
