<svg width="250" height="250" viewBox="0 0 250 250" fill="none" xmlns="http://www.w3.org/2000/svg">
<mask id="mask0_26_720" style="mask-type:alpha" maskUnits="userSpaceOnUse" x="0" y="0" width="250" height="250">
<rect width="250" height="250" fill="#D9D9D9"/>
</mask>
<g mask="url(#mask0_26_720)">
</g>
<g clip-path="url(#clip0_26_720)">
<path d="M120.381 214.871L120.151 209.713C120.127 209.701 120.104 209.688 120.08 209.675C117.622 208.386 114.804 210.72 115.589 213.383C116.328 215.888 116.824 218.589 118.177 220.782C118.976 222.056 120.051 223.133 121.323 223.935C122.595 224.736 124.031 225.241 125.525 225.412L128.648 227.325C129.076 224.936 128.982 222.482 128.371 220.133C127.76 217.784 126.647 215.596 125.109 213.718C124.235 212.674 123.234 211.743 122.128 210.949C121.38 212.921 120.381 214.871 120.381 214.871Z" fill="#F2F2F2"/>
<path d="M92.4201 162.526C86.4075 156.325 77.6945 152.769 68.5151 152.769L68.161 152.77C62.1148 152.772 56.1764 151.169 50.9533 148.123L50.4098 147.806L50.8475 147.355C53.2175 144.903 55.1964 142.101 56.7149 139.048C55.6364 140.054 54.3501 140.81 52.947 141.263C51.5439 141.716 50.0583 141.856 48.5954 141.671C47.0509 141.487 45.5681 140.956 44.2583 140.117C42.9486 139.278 41.8457 138.153 41.0326 136.827C37.8243 131.622 34 124.235 34 118.608C34.005 113.852 35.0008 109.149 36.9241 104.799C38.8473 100.449 41.6557 96.5479 45.1703 93.3434C47.3954 91.3371 49.1726 88.8844 50.3862 86.1452C51.5998 83.406 52.2224 80.4418 52.2135 77.4458L52.2118 77.0194C52.2111 73.075 52.6932 69.1454 53.647 65.318L53.7439 64.9316L54.1416 64.9454C56.7058 65.0327 59.2715 64.8178 61.7855 64.3051C59.4273 64.0158 57.1204 63.4022 54.9302 62.4817L54.5024 62.3087L54.6476 61.8703C64.6552 55.674 87.2453 58.8828 100.357 28.8834C110.989 4.55796 148.503 50.4771 148.503 77.0194C148.503 79.7278 145.822 83.3068 147.829 85.0968C169.519 104.448 154.553 116.874 149.835 129.377C148.715 132.344 151.143 135.6 151.143 138.81C151.143 139.354 151.129 139.917 151.101 140.481L151.06 141.348L150.336 140.867C148.906 139.929 147.579 138.842 146.38 137.622C147.624 140.484 148.211 143.589 148.096 146.708C147.981 149.827 147.169 152.881 145.718 155.644C143.445 159.935 141.246 163.006 139.182 164.773C132.571 170.431 124.047 173.349 115.355 172.932C106.663 172.514 98.4588 168.792 92.4201 162.526Z" fill="#E6E6E6"/>
<path d="M128.734 227.07C128.882 227.07 129.025 227.016 129.136 226.92C129.248 226.823 129.321 226.689 129.342 226.542C129.368 226.359 131.924 207.921 129.628 183.415C127.508 160.784 120.698 128.187 100.299 101.416C100.25 101.352 100.189 101.297 100.119 101.257C100.05 101.216 99.9726 101.19 99.8926 101.179C99.8125 101.168 99.7312 101.173 99.6531 101.194C99.575 101.214 99.5018 101.25 99.4376 101.299C99.3733 101.348 99.3194 101.409 99.2788 101.479C99.2382 101.549 99.2118 101.626 99.201 101.706C99.1903 101.786 99.1954 101.867 99.2161 101.945C99.2368 102.023 99.2727 102.096 99.3217 102.161C119.545 128.701 126.299 161.058 128.405 183.53C130.688 207.893 128.151 226.187 128.125 226.369C128.113 226.456 128.119 226.545 128.144 226.63C128.169 226.714 128.212 226.792 128.27 226.859C128.328 226.925 128.399 226.978 128.479 227.015C128.559 227.051 128.646 227.07 128.734 227.07Z" fill="#2B2D42"/>
<path d="M112.087 139.178C112.217 139.178 112.344 139.137 112.449 139.061C112.554 138.985 112.632 138.877 112.672 138.754C112.712 138.63 112.712 138.497 112.672 138.374C112.632 138.251 112.554 138.143 112.449 138.067C112.375 138.013 104.912 132.636 93.756 128.551C83.4428 124.775 67.7599 121.352 51.6147 126.491C51.5378 126.515 51.4663 126.554 51.4045 126.606C51.3428 126.658 51.2918 126.722 51.2547 126.794C51.2175 126.865 51.1949 126.944 51.188 127.024C51.1812 127.105 51.1902 127.186 51.2147 127.263C51.2392 127.34 51.2786 127.411 51.3307 127.473C51.3828 127.534 51.4466 127.585 51.5183 127.622C51.5901 127.659 51.6685 127.682 51.7489 127.689C51.8294 127.695 51.9104 127.686 51.9873 127.661C67.8017 122.629 83.2003 125.995 93.3335 129.705C104.331 133.731 111.654 139.008 111.727 139.061C111.831 139.137 111.958 139.178 112.087 139.178Z" fill="#2B2D42"/>
<path d="M140.205 69.1468C140.215 69.0173 140.183 68.8882 140.114 68.778C140.046 68.6677 139.944 68.582 139.824 68.533C139.704 68.4841 139.571 68.4745 139.445 68.5055C139.319 68.5366 139.206 68.6068 139.123 68.706C139.064 68.776 133.163 75.8319 128.286 86.6651C123.777 96.6797 119.233 112.075 123.196 128.549C123.234 128.707 123.333 128.844 123.472 128.929C123.611 129.014 123.778 129.04 123.937 129.002C124.095 128.964 124.232 128.865 124.317 128.726C124.402 128.587 124.429 128.42 124.39 128.261C120.509 112.125 124.976 97.0094 129.406 87.1696C134.214 76.491 140.004 69.5667 140.062 69.498C140.146 69.399 140.196 69.276 140.205 69.1468Z" fill="#2B2D42"/>
<path d="M139.374 100.825C139.892 105.007 142.79 108.455 147.004 108.455C149.028 108.455 150.968 107.651 152.399 106.22C153.83 104.789 154.634 102.849 154.634 100.825C154.634 96.611 151.2 93.5844 147.004 93.1948C142.552 92.7814 138.708 95.4558 139.374 100.825Z" fill="#2B2D42"/>
<path d="M150.538 223.709L153.444 223.709L154.826 212.502L150.537 212.502L150.538 223.709Z" fill="#FFB6B6"/>
<path d="M150.436 226.741L159.371 226.74V226.627C159.371 225.705 159.005 224.82 158.352 224.168C157.7 223.516 156.816 223.149 155.893 223.149L154.261 221.911L151.216 223.15L150.436 223.15L150.436 226.741Z" fill="#2B2D42"/>
<path d="M139.093 223.709L141.998 223.709L143.381 212.502L139.092 212.502L139.093 223.709Z" fill="#FFB6B6"/>
<path d="M138.991 226.741L147.926 226.74V226.627C147.926 225.705 147.559 224.82 146.907 224.168C146.255 223.516 145.37 223.149 144.448 223.149L142.816 221.911L139.77 223.15L138.99 223.15L138.991 226.741Z" fill="#2B2D42"/>
<path d="M160.537 153.514L162.591 160.557L160.171 190.387C160.171 190.387 161.417 192.252 160.537 192.252C159.657 192.252 158.528 192.666 159.239 193.78C159.95 194.893 157.519 198.892 157.519 198.892L154.081 220.132L149.699 220.067C149.699 220.067 147.472 218.826 148.722 217.571C149.972 216.317 150.853 216.317 149.679 215.143C148.505 213.969 148.505 214.322 148.505 213.412C148.505 212.501 147.329 201.375 150.118 197.107L149.277 179.706L147.298 196.774L143.222 219.545L139.002 219.51C139.002 219.51 137.052 217.631 137.056 216.24C137.059 214.849 138.26 214.734 137.366 213.911C136.473 213.088 136.473 200.451 139.114 193.426C139.114 193.426 140.608 189.501 139.11 188.156C137.613 186.811 139.109 185.272 139.109 185.272C139.109 185.272 141.48 184.415 139.106 181.945C136.733 179.475 139.094 162.004 139.094 162.004C139.094 162.004 136.499 154.952 139.127 152.179C141.755 149.406 160.537 153.514 160.537 153.514Z" fill="#2B2D42"/>
<path d="M123.949 165.649L127.614 156.792L130.502 158.396L128.758 167.406C128.933 167.977 128.945 168.585 128.793 169.163C128.64 169.74 128.33 170.263 127.897 170.674C127.464 171.085 126.925 171.366 126.34 171.487C125.756 171.608 125.149 171.564 124.588 171.359C124.027 171.154 123.535 170.797 123.166 170.328C122.797 169.858 122.567 169.295 122.5 168.702C122.434 168.109 122.534 167.509 122.79 166.969C123.046 166.43 123.447 165.973 123.949 165.649Z" fill="#FFB6B6"/>
<path d="M185.452 95.6066L179.876 103.403L177.427 101.186L181.167 92.8056C181.126 92.21 181.252 91.6148 181.531 91.0871C181.81 90.5593 182.231 90.1197 182.746 89.8179C183.261 89.516 183.85 89.3638 184.446 89.3783C185.043 89.3929 185.624 89.5736 186.124 89.9002C186.623 90.2268 187.022 90.6863 187.275 91.227C187.528 91.7678 187.625 92.3684 187.555 92.9613C187.485 93.5541 187.252 94.1158 186.88 94.5831C186.509 95.0504 186.014 95.4049 185.452 95.6066Z" fill="#FFB6B6"/>
<path d="M161.091 154.236C164.708 159.847 146.525 166.967 139.549 164.109C138.327 163.608 134.125 161.955 136.997 159.663C139.869 157.371 136.664 157.048 136.588 155.556C136.538 154.558 137.31 152.37 136.504 152.464C135.698 152.558 134.755 151.178 136.51 150.585C138.265 149.991 136.529 149.449 136.544 148.886C136.712 142.736 141.43 132.954 141.43 132.954L132.928 154.688C132.928 154.688 132.991 158.448 131.907 157.299C130.823 156.15 130.902 159.869 130.902 159.869C130.902 159.869 129.289 160.994 130.217 161.62C131.144 162.246 129.218 164.171 129.218 164.171L124.726 163.85C124.726 163.85 124.797 160.513 125.564 159.775C126.331 159.038 125.954 157.876 125.954 157.876C125.954 157.876 127.951 156.109 126.612 154.673C124.89 152.827 131.168 121.649 133.334 121.958C133.641 120.467 134.353 119.09 135.393 117.979C136.433 116.868 137.76 116.067 139.227 115.663L144.079 114.327L144.941 110.909H151.772L152.962 113.155L158.156 115.498C159.134 114.118 159.865 112.664 163.871 112.192C163.871 112.192 174.666 102.371 174.139 101.604C173.612 100.837 175.285 99.0414 175.285 99.0414C175.285 99.0414 176.714 98.5737 175.908 98.324C175.101 98.0743 176.626 97.4969 176.626 97.4969C176.626 97.4969 178.037 97.126 177.371 96.6375C176.706 96.1491 179.593 95.8282 179.593 95.8282L183.34 98.8852L182.583 100.169C182.583 100.169 183.045 101.918 182.442 101.279C181.839 100.641 181.726 102.494 181.726 102.494C181.726 102.494 181.418 104.522 179.593 105.133C177.769 105.744 176.385 111.55 176.385 111.55C172.081 117.146 167.002 121.511 160.984 124.385C163.329 127.077 161.091 154.236 161.091 154.236Z" fill="#8D99AE"/>
<path d="M147.847 108.908C151.584 108.908 154.614 105.879 154.614 102.142C154.614 98.4053 151.584 95.376 147.847 95.376C144.111 95.376 141.081 98.4053 141.081 102.142C141.081 105.879 144.111 108.908 147.847 108.908Z" fill="#FFB6B6"/>
<path d="M140.841 102.879C141.055 104.35 142.309 106.401 142.015 106.401C141.722 106.401 139.635 100.34 141.722 99.9445C143.235 99.6579 143.573 99.9093 144.988 99.296L144.788 99.4838C145.724 100.165 147.028 99.745 148.096 99.3018C149.167 98.8616 150.467 98.442 151.406 99.1199C151.996 99.5454 152.245 100.285 152.612 100.913C152.979 101.544 153.657 102.14 154.355 101.946C154.916 101.79 155.239 101.162 155.236 100.581C155.233 100 154.476 99.4475 154.731 98.9262C155.486 97.3813 154.807 96.3282 153.161 95.6012C152.562 95.5102 151.964 95.4173 151.365 95.3224C151.679 94.8879 152.059 94.5056 152.492 94.1896C152.309 93.7207 151.993 93.3156 151.582 93.0245C151.104 92.7399 150.511 92.7604 149.956 92.7898C148.718 92.8543 147.48 92.9189 146.244 92.9835C145.328 93.0304 144.38 93.0862 143.562 93.5058C142.54 94.0311 141.871 95.0554 141.384 96.0972C140.292 98.439 140.466 100.323 140.841 102.879Z" fill="#2B2D42"/>
<path d="M112.694 227.503L179.238 227.593C179.331 227.593 179.42 227.556 179.486 227.491C179.551 227.425 179.588 227.336 179.588 227.244C179.588 227.151 179.551 227.062 179.486 226.996C179.42 226.931 179.331 226.894 179.238 226.894L112.694 226.804C112.602 226.804 112.513 226.841 112.447 226.906C112.382 226.972 112.345 227.061 112.345 227.153C112.345 227.246 112.382 227.335 112.447 227.4C112.513 227.466 112.602 227.503 112.694 227.503Z" fill="#CACACA"/>
<path d="M88.6271 197.043C88.7497 196.2 87.8667 195.374 86.6547 195.197C85.4427 195.021 84.3607 195.562 84.238 196.405C84.1153 197.248 84.9984 198.074 86.2104 198.251C87.4224 198.427 88.5044 197.886 88.6271 197.043Z" fill="#E6E6E6"/>
<path d="M103.057 195.635C103.18 194.792 102.297 193.966 101.085 193.789C99.8729 193.613 98.791 194.153 98.6683 194.997C98.5456 195.84 99.4287 196.666 100.641 196.843C101.853 197.019 102.935 196.478 103.057 195.635Z" fill="#2B2D42"/>
<path d="M84.6756 185.361C84.7983 184.518 83.9152 183.691 82.7032 183.515C81.4912 183.339 80.4092 183.879 80.2866 184.722C80.1639 185.565 81.047 186.392 82.259 186.568C83.471 186.745 84.553 186.204 84.6756 185.361Z" fill="#FF6584"/>
<path d="M78.4052 180.576C78.4111 179.802 77.9793 179.171 77.4409 179.167C76.9024 179.163 76.4612 179.787 76.4553 180.561C76.4494 181.335 76.8812 181.966 77.4197 181.97C77.9581 181.974 78.3994 181.35 78.4052 180.576Z" fill="#E6E6E6"/>
<path d="M76.2789 171.662C76.2847 170.888 75.853 170.258 75.3145 170.254C74.7761 170.249 74.3348 170.874 74.329 171.648C74.3231 172.422 74.7549 173.052 75.2933 173.057C75.8318 173.061 76.273 172.436 76.2789 171.662Z" fill="#2B2D42"/>
<path d="M92.8144 187.349C92.8203 186.575 92.3885 185.944 91.85 185.94C91.3116 185.936 90.8703 186.56 90.8645 187.334C90.8586 188.108 91.2904 188.739 91.8289 188.743C92.3673 188.747 92.8086 188.123 92.8144 187.349Z" fill="#E6E6E6"/>
<path d="M85.8411 190.831C85.847 190.057 85.4152 189.426 84.8768 189.422C84.3383 189.418 83.8971 190.042 83.8912 190.816C83.8854 191.59 84.3171 192.221 84.8556 192.225C85.394 192.229 85.8353 191.605 85.8411 190.831Z" fill="#FF6584"/>
<path d="M95.5483 197.266C95.5541 196.492 95.1224 195.861 94.5839 195.857C94.0455 195.853 93.6042 196.477 93.5984 197.251C93.5925 198.025 94.0243 198.656 94.5627 198.66C95.1012 198.664 95.5424 198.04 95.5483 197.266Z" fill="#2B2D42"/>
<path d="M199.558 151.849C199.681 151.006 198.798 150.179 197.586 150.003C196.374 149.827 195.292 150.367 195.169 151.21C195.047 152.054 195.93 152.88 197.142 153.056C198.354 153.233 199.436 152.692 199.558 151.849Z" fill="#E6E6E6"/>
<path d="M213.989 150.441C214.111 149.598 213.228 148.771 212.016 148.595C210.804 148.419 209.722 148.959 209.6 149.802C209.477 150.646 210.36 151.472 211.572 151.648C212.784 151.825 213.866 151.284 213.989 150.441Z" fill="#2B2D42"/>
<path d="M195.607 140.167C195.729 139.323 194.846 138.497 193.634 138.321C192.422 138.144 191.34 138.685 191.217 139.528C191.095 140.371 191.978 141.198 193.19 141.374C194.402 141.55 195.484 141.01 195.607 140.167Z" fill="#FF6584"/>
<path d="M189.337 135.381C189.342 134.607 188.911 133.976 188.372 133.972C187.834 133.968 187.392 134.593 187.387 135.367C187.381 136.141 187.812 136.771 188.351 136.775C188.889 136.78 189.331 136.155 189.337 135.381Z" fill="#E6E6E6"/>
<path d="M187.21 126.468C187.216 125.694 186.784 125.063 186.246 125.059C185.707 125.055 185.266 125.679 185.26 126.453C185.254 127.227 185.686 127.858 186.225 127.862C186.763 127.866 187.204 127.242 187.21 126.468Z" fill="#2B2D42"/>
<path d="M203.746 142.155C203.752 141.381 203.32 140.75 202.781 140.746C202.243 140.742 201.802 141.366 201.796 142.14C201.79 142.914 202.222 143.545 202.76 143.549C203.299 143.553 203.74 142.929 203.746 142.155Z" fill="#E6E6E6"/>
<path d="M196.772 145.636C196.778 144.862 196.346 144.232 195.808 144.227C195.269 144.223 194.828 144.848 194.822 145.622C194.817 146.396 195.248 147.026 195.787 147.031C196.325 147.035 196.766 146.41 196.772 145.636Z" fill="#FF6584"/>
<path d="M206.479 152.071C206.485 151.297 206.054 150.667 205.515 150.663C204.977 150.659 204.535 151.283 204.53 152.057C204.524 152.831 204.955 153.462 205.494 153.466C206.032 153.47 206.474 152.846 206.479 152.071Z" fill="#2B2D42"/>
<path d="M145.854 68.2105C145.976 67.3673 145.093 66.5409 143.881 66.3645C142.669 66.1882 141.587 66.7287 141.464 67.5719C141.342 68.415 142.225 69.2415 143.437 69.4178C144.649 69.5942 145.731 69.0536 145.854 68.2105Z" fill="white"/>
<path d="M160.284 66.8023C160.406 65.9592 159.523 65.1328 158.311 64.9564C157.099 64.7801 156.017 65.3206 155.895 66.1637C155.772 67.0069 156.655 67.8333 157.867 68.0097C159.079 68.186 160.161 67.6455 160.284 66.8023Z" fill="#2B2D42"/>
<path d="M141.902 56.528C142.025 55.6848 141.142 54.8584 139.93 54.682C138.718 54.5057 137.636 55.0462 137.513 55.8894C137.39 56.7325 138.273 57.559 139.485 57.7353C140.697 57.9117 141.779 57.3711 141.902 56.528Z" fill="#FF6584"/>
<path d="M135.632 51.7427C135.638 50.9687 135.206 50.3379 134.667 50.3338C134.129 50.3297 133.688 50.9539 133.682 51.7279C133.676 52.502 134.108 53.1328 134.646 53.1368C135.185 53.1409 135.626 52.5167 135.632 51.7427Z" fill="#E6E6E6"/>
<path d="M133.505 42.8295C133.511 42.0555 133.079 41.4247 132.541 41.4207C132.003 41.4166 131.561 42.0408 131.555 42.8148C131.55 43.5888 131.981 44.2196 132.52 44.2237C133.058 44.2278 133.499 43.6036 133.505 42.8295Z" fill="#2B2D42"/>
<path d="M150.041 58.5161C150.047 57.742 149.615 57.1112 149.076 57.1072C148.538 57.1031 148.097 57.7273 148.091 58.5013C148.085 59.2754 148.517 59.9061 149.055 59.9102C149.594 59.9143 150.035 59.2901 150.041 58.5161Z" fill="#E6E6E6"/>
<path d="M143.068 61.9978C143.073 61.2237 142.642 60.593 142.103 60.5889C141.565 60.5848 141.124 61.209 141.118 61.983C141.112 62.757 141.544 63.3878 142.082 63.3919C142.62 63.396 143.062 62.7718 143.068 61.9978Z" fill="#FF6584"/>
<path d="M152.775 68.4329C152.781 67.6588 152.349 67.0281 151.81 67.024C151.272 67.0199 150.831 67.6441 150.825 68.4181C150.819 69.1922 151.251 69.8229 151.789 69.827C152.328 69.8311 152.769 69.2069 152.775 68.4329Z" fill="#2B2D42"/>
</g>
<defs>
<clipPath id="clip0_26_720">
<rect width="180" height="205.593" fill="white" transform="translate(34 22)"/>
</clipPath>
</defs>
</svg>
